Coordinates
version=1
nRows=5
nColumns=40
inDegrees=yes

Units are S.I. units (second, meters, Newtons, ...)
Angles are in degrees.

endheader
time	pelvis_tilt	pelvis_list	pelvis_rotation	pelvis_tx	pelvis_ty	pelvis_tz	hip_flexion_r	hip_adduction_r	hip_rotation_r	knee_angle_r	knee_angle_r_beta	ankle_angle_r	subtalar_angle_r	mtp_angle_r	hip_flexion_l	hip_adduction_l	hip_rotation_l	knee_angle_l	knee_angle_l_beta	ankle_angle_l	subtalar_angle_l	mtp_angle_l	lumbar_extension	lumbar_bending	lumbar_rotation	arm_flex_r	arm_add_r	arm_rot_r	elbow_flex_r	pro_sup_r	wrist_flex_r	wrist_dev_r	arm_flex_l	arm_add_l	arm_rot_l	elbow_flex_l	pro_sup_l	wrist_flex_l	wrist_dev_l
     47.95250000	     -4.83511709	     -4.80305762	      1.49061980	      0.93547450	      0.91406106	      0.49149047	     25.87284471	      1.83979036	    -11.39084577	     25.61735204	     25.61735204	      6.47808575	     -8.06886945	     -0.32439698	      5.53837195	    -11.26965450	     -5.22795996	     40.31654775	     40.31654775	     10.98211707	    -12.65677458	    -14.99349589	    -10.78688305	      5.31252458	      1.14619971	    -10.28977171	    -12.28673825	      5.05859786	     30.93157098	     45.73268692	      0.00000000	      0.00000000	     17.42478919	    -20.88361304	      0.78303350	    101.56985714	     48.40972974	      0.00000000	      0.00000000
     47.96428571	     -4.82183027	     -5.00538042	      1.78369228	      0.93581357	      0.91550481	      0.49359501	     24.94221738	      2.14041753	    -11.87684413	     25.04717624	     25.04717624	      6.85329860	     -7.61234443	     -0.46084392	      7.75920493	    -11.85039172	     -3.98078995	     44.59581322	     44.59581322	      8.37571116	    -14.17730613	    -14.62799580	    -10.83793194	      5.50987690	      1.16403550	     -8.82822142	    -12.44811694	      5.16124370	     31.43656565	     45.71909417	      0.00000000	      0.00000000	     16.06126151	    -20.18445716	      1.03529170	     99.24685529	     48.34423282	      0.00000000	      0.00000000
     47.97607143	     -4.81709544	     -5.12722258	      2.03504517	      0.93600450	      0.91691979	      0.49565295	     24.01923882	      2.36040902	    -12.38351136	     24.46652078	     24.46652078	      7.22944997	     -7.00593450	     -0.68058649	     10.07481238	    -12.20606601	     -2.64648006	     48.79251170	     48.79251170	      5.89034134	    -15.54506622	    -13.40721565	    -10.86736484	      5.56969832	      1.20501183	     -7.22924436	    -12.64591813	      5.26866230	     32.01991989	     45.70340645	      0.00000000	      0.00000000	     14.84207769	    -19.36186000	      1.18204877	     96.09168195	     48.27054813	      0.00000000	      0.00000000
     47.98785714	     -4.80200367	     -5.25580742	      2.29361082	      0.93602913	      0.91825570	      0.49754473	     23.09270180	      2.56104200	    -12.98268175	     23.88325302	     23.88325302	      7.56262164	     -6.29106530	     -0.97999915	     12.50190488	    -12.45166574	     -1.25241618	     52.96754161	     52.96754161	      4.13992502	    -16.27076601	    -10.57118966	    -10.87646015	      5.66740112	      1.42741751	     -5.71894580	    -12.95060910	      5.36220665	     32.65723575	     45.68680008	      0.00000000	      0.00000000	     14.00375279	    -18.28806540	      1.30287298	     92.14035548	     48.18769163	      0.00000000	      0.00000000
     47.99964286	     -4.80367941	     -5.38833667	      2.53230997	      0.93586627	      0.91949052	      0.49937388	     22.19226101	      2.78840906	    -13.53737271	     23.27827017	     23.27827017	      7.82889742	     -5.61840829	     -1.21982881	     15.03757831	    -12.59748893	      0.14699872	     57.00797304	     57.00797304	      3.05584638	    -16.51087586	     -6.69763287	    -10.89190448	      5.74883681	      1.67284883	     -4.21423628	    -13.29161331	      5.23904354	     33.47291561	     45.67677520	      0.00000000	      0.00000000	     13.18998970	    -17.30854598	      1.57703140	     88.11044084	     48.09505651	      0.00000000	      0.00000000
